<?xml version="1.0" encoding="UTF-8"?>
<svg id="Layer_1" xmlns="http://www.w3.org/2000/svg" version="1.1" viewBox="0 0 288 288">
  <!-- Generator: Adobe Illustrator 29.1.0, SVG Export Plug-In . SVG Version: 2.1.0 Build 142)  -->
  <defs>
    <style>
      .st0 {
        fill: #eb0d8c;
      }
    </style>
  </defs>
  <path class="st0" d="M167.14,164.78c-5.92-.18-33.21-.15-37.43-.13-8.17.03-16.33.1-24.5.05-3.45-.02-6.89-.27-10.34-.38-1.75-.06-3.51-.02-5.26-.06-4.11-.09-8.22-.24-12.33-.28-5.64-.06-11.29.04-16.93-.1-3.12-.07-6.24-.39-9.34-.73-3.04-.33-6.09-.74-9.1-1.29-1.7-.31-7.19-2.1-8.28-2.44-.62-.2-1.24-.44-1.83-.72-6.16-2.95-10.85-7.46-13.85-13.66-1.13-2.33-2.21-4.74-2.85-7.23-.41-1.63-.95-6.32-1.02-6.87-.37-2.74.43-5.49.5-8.24,0-.22.03-.44.07-.66.84-4.11,1.59-8.25,2.56-12.34.97-4.11,2.66-7.96,4.94-11.52,1.03-1.61,2.1-3.21,3.16-4.8,1.11-1.67,2.71-2.85,4.08-4.26,2.39-2.47,5.02-4.66,8.08-6.2,4.8-2.43,9.78-4.41,15.05-5.6,3.44-.78,6.94-.91,10.45-.94,3.01-.02,6.02-.12,9.04-.19,3.23-.07,6.46-.12,9.69-.23,2.19-.07,4.37-.25,6.56-.38,5.58-.31,11.16-.65,16.74-.93,5.25-.26,10.5-.49,15.76-.67,4.71-.16,9.42-.26,14.14-.37,4.55-.11,49.74.57,52.78.49,2.68-.07,5.36.1,8.04.17.93.03,1.86.04,2.8.11,3.31.27,6.62.55,9.92.85,2.23.21,4.46.43,6.69.72,2.76.36,5.52.79,8.27,1.21,1.45.22,7.98,1.88,9.84,2.31.65.15,12.18,3.51,14,4.29,5.69,2.44,11.25,5.08,15.78,9.56,2.53,2.5,4.7,5.19,6.59,8.21,2.61,4.18,4.38,16.48,4.4,21.02-.58,5.62-2.17,11.02-3.48,16.49-1.04,4.31-2.55,8.45-3.98,12.63-1.21,3.55-3.27,6.63-5.15,9.82-.56.95-1.07,1.94-1.72,2.83-2.03,2.81-4.63,4.99-7.49,6.9-3.33,2.22-7.05,3.45-10.78,4.7-1.52.51-2.95,1.37-4.38,2.14-.4.22-2.31,4.2-3.06,5.74-.89,1.83-1.75,3.72-2.88,5.39-1.76,2.6-3.57,5.2-5.67,7.52-2.54,2.82-5.39,5.35-8.12,7.99-1.23,1.18-2.45,2.39-3.78,3.44-2.97,2.34-6.49,3.65-9.87,5.21-.59.27-1.27.32-1.86.58-.62.27-2.1.71-2.54.07-.45-.65.06-1.64.56-2.46.91-1.51,1.9-2.98,2.74-4.52,1.06-1.95,1.35-4.17,1.85-6.31.7-3.01,1.39-6.04,2.12-9.04.5-2.03.47-3.34,1.12-6.05.65-4.07,1.42-16,1.27-18.77-.07-1.25-.1-1.23-1.34-1.37-3.76-.92-6.16-1.08-10.11-1.16-2.01-.17-29.45.46-30.32.43v-.02ZM209.64,205.05c3.4-3.29,6.77-6.63,10.15-9.95.08-.08.14-.17.21-.25,2.39-2.95,4.9-5.82,6.86-9.1,1.94-3.27,3.95-6.5,4.74-10.33.38-1.86,1.43-3.4,3.26-4.11,1.25-.49,2.63-.68,3.92-1.08,1.61-.49,3.29-.85,4.76-1.62,2.08-1.09,4.02-2.48,5.98-3.79,1.46-.97,2.86-2.03,3.9-3.51,2.05-2.9,3.73-5.99,5.09-9.28,1.72-4.15,2.8-8.51,3.88-12.84,1.2-4.81,1.62-9.73,1.06-14.68-.1-3.94-.59-7.46-1.12-11.36-.39-2.53-1.81-5.89-3.41-8.33-.76-1.15-1.5-2.31-2.29-3.45-1.92-2.77-4.32-5.01-7.34-6.49-3.1-1.52-6.2-3.05-9.37-4.43-5.85-2.53-11.94-4.34-18.13-5.77-3.61-.83-17.73-2.78-23.04-3.28-3.43-.36-33.62-1.08-39.05-1.07-4.11,0-8.21-.24-12.32-.32-5.59-.11-11.17-.14-16.76-.26-4.74-.11-53.79,2.35-55.63,2.56-1.63.19-20.84,1.81-23.19,2-.82.02-2.09.39-3.12.57-.43.07-4.49,1.34-6.23,2.45-5.53,3.48-9.95,8.11-13.46,13.67-2.02,3.21-3.62,6.62-4.54,10.27-1.01,3.95-1.79,7.98-2.39,12.02-.43,2.94-.35,9.2.15,11.27.51,2.08,2,4.74,2.53,5.61s1.84,2.36,2.8,3.64c2.08,2.8,4.84,4.79,7.82,6.46,2.41,1.35,5.09,1.83,7.79,2.39,3.14.65,6.28.73,9.43.98.87.07,9.8.86,13.39.97,4.81.15,9.63.05,14.45.02,4.93-.03,47.63.99,51.41,1.1,3.34.1,6.68.21,10.02.34,4.49.19,29.85.25,32.37.18,5.37-.14,10.74-.4,16.11-.48,4.38-.06,8.77.06,13.16.11,3.63.04,7.18.58,10.66,1.69,1.16.37,2.06,1.06,2.74,2.01,2.18,3.05,2.75,6.44,1.86,10.08-.58,2.35-1.22,4.67-1.82,7.01-.14.53-1.95,8.73-2.37,9.93-.7,2.02-1.39,4.04-2.08,6.07-.16.47-.27.95-.45,1.41-.74,1.88-1.12,3.88-2.11,5.69-1.32,2.4-1.88,5.66-3.62,7.88-.2.25,2.15-1.48,3.29-2.58h0Z"/>
  <path class="st0" d="M109.54,133.98c1.35-.87,2.01-1.96,2.66-3.05,1.92-3.21,3.8-6.45,5.74-9.66.75-1.24,1.58-2.45,2.49-3.57.33-.41,1.01-.58,1.57-.74,1.37-.41,2.74-.34,4.08.2.65.26.92.65.78,1.42-.37,2.09-.66,4.19-.91,6.29-.34,2.83-.63,5.66-.92,8.49-.06.57-.01,1.15-.01,1.99,1.26-.77,1.84-1.75,2.46-2.65.53-.77.99-1.58,1.39-2.43,1.21-2.58,2.45-5.16,3.56-7.79,1.32-3.13,2.36-6.38,3.83-9.44,1.64-3.41,3.59-6.67,5.43-9.99.51-.92,1.22-2.65,1.67-2.8s4.64,2.17,4.74,2.54-.43,1.38-.68,2.04-7.85,18.7-8.35,20.37c-1.02,3.38-2.91,6.48-5.12,9.18-1.13,1.38-2,2.56-3.33,3.9-1.27,1.5-3.03,2.19-4.96,2.35-.26.02-.43.03-.8-.05-2.87-1.14-5.48-2.58-6.47-5.83-.09-.3-.24-.59-.46-1.14-.85.91-2.66,2.96-2.89,3.21-2.05,2.25-4.01,2.55-6.99,1.11-1.36-.66-2.53-1.62-3.41-2.83s-1.48-2.44-1.49-3.98c-.03-2.48.26-4.87.98-7.26,1.46-4.84,3.62-9.36,5.91-13.83.74-1.43,1.4-2.9,2.11-4.34.12-.24.27-.5.47-.68.99-.88,3.93-.8,4.88.12.81.78.94,1.41.51,2.41-1.23,2.93-2.47,5.86-3.7,8.79-1.12,2.67-2.27,5.33-3.36,8-1.06,2.59-1.96,5.24-1.72,8.11.04.46.18.91.32,1.56h0Z"/>
  <path class="st0" d="M53.5,97.68c.55.1,1.13.21,1.73.3,2.1.3,3.17,1.51,3.33,3.67.16,2.16-.38,4.22-.84,6.28-.67,3.04-1.53,6.05-2.3,9.07-.06.26-.07.53-.12.91.44.06.82.17,1.18.14,3.44-.32,6.88-.67,10.32-.99.55-.05.93-.18,1.11-.78.99-3.36,2.22-6.67,2.96-10.09.71-3.26,2.54-5.91,3.98-8.79.07-.15.17-.29.28-.42.69-.87,1.11-.98,1.96-.32.7.55,1.32,1.21,1.9,1.88.65.77.81,1.64.41,2.64-1.55,3.84-2.43,7.87-3.29,11.91-.89,4.2-2.11,8.31-3.77,12.27-1.16,2.77-2.22,5.77-3.32,8.58-.42.92-.46,1.87-1.91,2.04s-2.5-.86-2.94-1.76c-.61-1.26-.47-3.23-.08-4.73.5-1.94.94-3.9,1.39-5.85.24-1.06-.28-1.57-1.32-1.34-3.41.76-6.82,1.57-10.25,2.23-1.02.2-1.47.66-1.88,1.57-1.45,3.2-2.93,6.4-4.57,9.51-.83,1.56-2,2.95-3.08,4.37-.48.62-2.24.76-2.71.21-.27-.32-.44-.94-.33-1.33.48-1.59,1.12-3.13,1.64-4.72.92-2.81,1.79-5.63,2.7-8.44.55-1.7.52-1.88-.86-2.99-.59-.48-1.36-.8-1.48-1.86,1.16-.38,2.3-.8,3.47-1.1.69-.17,1.04-.51,1.24-1.18.82-2.78,1.64-5.57,2.51-8.33.59-1.86,1.29-3.68,1.9-5.54.38-1.16.82-2.32,1.01-3.52.17-1.11.04-2.27.04-3.51h0Z"/>
  <path class="st0" d="M92.45,103.32c2.27.52,4.61,1.71,4.84,1.84,1.47.79,2.96,1.56,4.36,2.45,1.63,1.04,1.98,1.93,1.5,3.75-.8,3.07-1.33,6.2-2.58,9.16-1.15,2.72-1.99,5.56-3.2,8.25-1.87,4.13-4.83,7.38-8.8,9.6-2.55,1.42-5.21,1.54-7.86.12-.7-.38-4.85-3.95-5.3-4.64-.84-1.29-1.21-3.16-.92-4.65.2-1.03.31-1.91.75-3.35.83-1.99,3.17-5.79,4.72-8.31,2.4-3.9,4.91-7.69,8.27-10.9,1.28-1.22,2.46-2.47,4.2-3.32h0ZM96.69,113.17c.3-1.14.16-2.22-.26-3.27-.62-1.54-2-1.87-3.14-.68-1.47,1.52-2.88,3.1-4.26,4.7-3.57,4.13-6.15,8.88-8.51,13.76-.86,1.79-1.1,3.74-.78,5.73.22,1.39,1.27,1.97,2.56,1.43.36-.15.75-.3,1.03-.55,2.5-2.3,5.19-4.45,6.85-7.51,1.67-3.08,3.63-6.01,4.87-9.32.03-.06,1.27-2.86,1.65-4.29h0Z"/>
  <path class="st0" d="M165.11,109.28c-1.41.48-2.81.95-4.22,1.43-1.47.5-2.91,1.21-4.43,1.41-1.21.16-2.53-.16-3.74-.5-1.43-.4-2.22-1.72-3.7-2.74.67-.13.93-.23,1.16-.21,2.74.24,5.28-.68,7.89-1.27,2.77-.62,5.55-1.21,8.35-1.73,2.13-.4,4.29-.64,6.43-.99,1.16-.19,1.93.24,2.39,1.21-1.29,1.12-2.58,2.14-3.75,3.3-.83.82-1.45,1.82-2.2,2.72-.38.46-.85.85-1.26,1.28-2.01,2.15-3.8,4.48-5.57,6.84-2.47,3.3-5.17,6.42-8,9.92,1.29-.4,2.29-.73,3.29-1.02,3-.85,5.99-1.76,9.02-2.5,2.1-.51,4.27-.77,6.4-1.18.85-.16,1.21.33,1.63,1.17-.8.48-1.58.98-2.39,1.41-.64.34-10.46,5.8-14.78,8.11-1.75.94-3.69,1.55-5.58,2.21-.99.34-2.04.5-3.08.71-1.86.37-3.64.06-5.38-.67-.85-.35-1.76-.59-2.76-.93.2-.29.34-.57.56-.79.94-.94,1.98-1.8,2.85-2.81,5.05-5.83,10.03-11.72,15.08-17.54,1.83-2.1,3.8-4.09,5.69-6.13.11-.11.16-.28.24-.41-.05-.11-.11-.21-.15-.31h.01Z"/>
  <path class="st0" d="M196.11,107.95c1.31.06,2.63.14,3.94.19,1.61.06,3.23.13,4.84.14.31,0,5.3-.55,6.94-.95,5.28-1.32,10.67-1.76,16.07-2.13.04,0,.08.06.26.2-.31.29-.56.68-.91.83-1.11.49-2.28.87-3.4,1.34-1.59.66-3.19,1.3-4.74,2.05-2.51,1.21-4.98,2.49-7.45,3.77-.27.14-.53.4-.67.67-.32.65-.63,1.32-.82,2.01-1.31,4.75-6.27,17.35-6.82,19.14-.38,1.22-.81,2.41-1.2,3.62-.44,1.37-.97,2.73-1.27,4.13-.63,1.41-.91,1.62-1.72,2.33-.59-.17-1.37-.14-1.94-.28-1.1-.26-1.9-.11-1.74-1.26.06-.44,2.19-10.61,3.46-14.87.76-2.55,1.63-5.08,2.56-7.58.82-2.19,1.78-4.32,2.68-6.47.17-.41.3-.83.5-1.4-3.39-.92-6.43-2.37-8.7-5.04l.13-.44h0Z"/>
  <path class="st0" d="M242.61,103.85c.19.73-1.95,6.04-2.42,7.58-.76,2.44-1.67,4.83-2.56,7.23-1.3,3.5-2.63,6.98-3.95,10.47-.4,1.04-.81,2.08-1.22,3.11-.06.15-.15.3-.22.45-.8,1.61-1.39,2.79-2.49,4-.94,1.04-2.82.75-3.36-.58-.42-1.04-.48-2.2-.09-3.44.55-1.74,2.78-10.33,3.52-12.83.48-1.61,5.25-18.49,5.89-18.84s6.74,2.12,6.92,2.85h0Z"/>
  <path class="st0" d="M178.23,128.36c.77-4.65,2.18-9.11,3.39-13.63.56-2.1,1.12-4.2,1.65-6.31.13-.53.62-2.92,1.37-2.75,1.5.34,3.09.44,4.44,1.34,1.25.84,1.3,1.2.67,2.59-.64,1.41-1.12,2.9-1.6,4.37-.83,2.54-1.6,5.1-2.39,7.64-1.18,3.77-2.37,7.54-3.5,11.34-.44,1.46-1.15,2.92-1.92,4.38-.59,1.5-1.14,1.82-1.64,2.93-.41.92-.7,1.11-1.6.87-.77-.2-.88-.76-.78-1.43.03-.16,1.34-7.72,1.94-11.34h0Z"/>
  <path class="st0" d="M219.35,145.1c.22-.83,1.41-2.34,3.3-3.77,1.08-.82,3.29-.66,4.46.46.95.84,1.32,1.59,1.65,3.03.19.92-.18,2.13-.51,2.55s-2.6,1.9-4.02,2.65c-1.11.48-2.2.12-3.28-.87-.55-.7-1.17-1.3-1.47-1.78s-.35-1.43-.13-2.27h0Z"/>
</svg>